<mxfile host="app.diagrams.net" modified="2023-10-28T06:50:04.641Z" agent="Mozilla/5.0 (Windows NT 10.0; Win64; x64) AppleWebKit/537.36 (KHTML, like Gecko) Chrome/117.0.0.0 Safari/537.36" etag="SxausuJ1Ml9L2TrTUUki" version="22.0.8" type="github">
  <diagram id="6a731a19-8d31-9384-78a2-239565b7b9f0" name="Page-1">
    <mxGraphModel dx="1050" dy="542" grid="1" gridSize="10" guides="1" tooltips="1" connect="1" arrows="1" fold="1" page="1" pageScale="1" pageWidth="1169" pageHeight="827" background="none" math="0" shadow="0">
      <root>
        <mxCell id="0" />
        <mxCell id="1" parent="0" />
        <mxCell id="2" value="开始" style="shape=mxgraph.flowchart.terminator;strokeWidth=2;gradientColor=none;gradientDirection=north;fontStyle=0;html=1;" parent="1" vertex="1">
          <mxGeometry x="260" y="60" width="120" height="30" as="geometry" />
        </mxCell>
        <mxCell id="7" style="fontStyle=1;strokeColor=#003366;strokeWidth=1;html=1;" parent="1" source="2" edge="1">
          <mxGeometry relative="1" as="geometry">
            <mxPoint x="320" y="130" as="targetPoint" />
          </mxGeometry>
        </mxCell>
        <mxCell id="8" style="fontStyle=1;strokeColor=#003366;strokeWidth=1;html=1;" parent="1" edge="1">
          <mxGeometry relative="1" as="geometry">
            <mxPoint x="320" y="250" as="sourcePoint" />
            <mxPoint x="320" y="330" as="targetPoint" />
            <Array as="points">
              <mxPoint x="320" y="230" />
            </Array>
          </mxGeometry>
        </mxCell>
        <mxCell id="wJdU_Nf6YIis5s1w9zZT-55" value="管理员账户登录" style="rounded=1;whiteSpace=wrap;html=1;" parent="1" vertex="1">
          <mxGeometry x="265" y="130" width="120" height="60" as="geometry" />
        </mxCell>
        <mxCell id="wJdU_Nf6YIis5s1w9zZT-56" value="修改教师信息" style="rounded=1;whiteSpace=wrap;html=1;" parent="1" vertex="1">
          <mxGeometry x="261.5" y="220" width="120" height="60" as="geometry" />
        </mxCell>
        <mxCell id="wJdU_Nf6YIis5s1w9zZT-57" value="" style="endArrow=classic;html=1;rounded=0;" parent="1" edge="1">
          <mxGeometry width="50" height="50" relative="1" as="geometry">
            <mxPoint x="321" y="190" as="sourcePoint" />
            <mxPoint x="320" y="220" as="targetPoint" />
          </mxGeometry>
        </mxCell>
        <mxCell id="wJdU_Nf6YIis5s1w9zZT-61" value="" style="rhombus;whiteSpace=wrap;html=1;" parent="1" vertex="1">
          <mxGeometry x="281" y="420" width="78" height="40" as="geometry" />
        </mxCell>
        <mxCell id="wJdU_Nf6YIis5s1w9zZT-63" value="信息格式错误" style="text;html=1;align=center;verticalAlign=middle;resizable=0;points=[];autosize=1;strokeColor=none;fillColor=none;" parent="1" vertex="1">
          <mxGeometry x="430" y="330" width="100" height="30" as="geometry" />
        </mxCell>
        <mxCell id="wJdU_Nf6YIis5s1w9zZT-64" value="" style="endArrow=classic;html=1;rounded=0;exitX=0.5;exitY=1;exitDx=0;exitDy=0;" parent="1" source="wJdU_Nf6YIis5s1w9zZT-61" edge="1">
          <mxGeometry width="50" height="50" relative="1" as="geometry">
            <mxPoint x="512" y="460" as="sourcePoint" />
            <mxPoint x="320" y="500" as="targetPoint" />
          </mxGeometry>
        </mxCell>
        <mxCell id="wJdU_Nf6YIis5s1w9zZT-65" value="结束" style="shape=mxgraph.flowchart.terminator;strokeWidth=2;gradientColor=none;gradientDirection=north;fontStyle=0;html=1;" parent="1" vertex="1">
          <mxGeometry x="265" y="700" width="120" height="30" as="geometry" />
        </mxCell>
        <mxCell id="lrlmSxfgCF_-cjUJ0Jiy-33" value="信息格式是否正确" style="rounded=1;whiteSpace=wrap;html=1;" parent="1" vertex="1">
          <mxGeometry x="260" y="330" width="120" height="60" as="geometry" />
        </mxCell>
        <mxCell id="lrlmSxfgCF_-cjUJ0Jiy-34" value="" style="endArrow=classic;html=1;rounded=0;exitX=0.5;exitY=1;exitDx=0;exitDy=0;" parent="1" edge="1" source="lrlmSxfgCF_-cjUJ0Jiy-33">
          <mxGeometry width="50" height="50" relative="1" as="geometry">
            <mxPoint x="320" y="500" as="sourcePoint" />
            <mxPoint x="320" y="420" as="targetPoint" />
          </mxGeometry>
        </mxCell>
        <mxCell id="lrlmSxfgCF_-cjUJ0Jiy-35" value="上传教师图片，选择本地图片" style="rounded=1;whiteSpace=wrap;html=1;" parent="1" vertex="1">
          <mxGeometry x="260" y="500" width="120" height="60" as="geometry" />
        </mxCell>
        <mxCell id="YpjsiR0Ej5Osr4Qk32iu-8" style="edgeStyle=orthogonalEdgeStyle;rounded=0;orthogonalLoop=1;jettySize=auto;html=1;exitX=0.5;exitY=1;exitDx=0;exitDy=0;" parent="1" source="lrlmSxfgCF_-cjUJ0Jiy-35" target="lrlmSxfgCF_-cjUJ0Jiy-35" edge="1">
          <mxGeometry relative="1" as="geometry" />
        </mxCell>
        <mxCell id="YpjsiR0Ej5Osr4Qk32iu-9" value="" style="endArrow=classic;html=1;rounded=0;exitX=0.5;exitY=1;exitDx=0;exitDy=0;" parent="1" source="lrlmSxfgCF_-cjUJ0Jiy-35" edge="1">
          <mxGeometry width="50" height="50" relative="1" as="geometry">
            <mxPoint x="510" y="720" as="sourcePoint" />
            <mxPoint x="320" y="600" as="targetPoint" />
          </mxGeometry>
        </mxCell>
        <mxCell id="YpjsiR0Ej5Osr4Qk32iu-14" value="修改成功" style="rounded=1;whiteSpace=wrap;html=1;" parent="1" vertex="1">
          <mxGeometry x="260" y="600" width="120" height="60" as="geometry" />
        </mxCell>
        <mxCell id="YpjsiR0Ej5Osr4Qk32iu-16" value="" style="endArrow=classic;html=1;rounded=0;exitX=0.5;exitY=1;exitDx=0;exitDy=0;" parent="1" edge="1" source="YpjsiR0Ej5Osr4Qk32iu-14">
          <mxGeometry width="50" height="50" relative="1" as="geometry">
            <mxPoint x="540" y="720" as="sourcePoint" />
            <mxPoint x="320" y="700" as="targetPoint" />
            <Array as="points">
              <mxPoint x="320" y="660" />
            </Array>
          </mxGeometry>
        </mxCell>
        <mxCell id="baKezza3G0TsTuOIl2WH-8" value="" style="endArrow=classic;html=1;rounded=0;exitX=1;exitY=0.5;exitDx=0;exitDy=0;entryX=1;entryY=0.5;entryDx=0;entryDy=0;" edge="1" parent="1" source="wJdU_Nf6YIis5s1w9zZT-61" target="wJdU_Nf6YIis5s1w9zZT-56">
          <mxGeometry width="50" height="50" relative="1" as="geometry">
            <mxPoint x="510" y="510" as="sourcePoint" />
            <mxPoint x="440" y="260" as="targetPoint" />
            <Array as="points">
              <mxPoint x="440" y="440" />
              <mxPoint x="440" y="250" />
            </Array>
          </mxGeometry>
        </mxCell>
      </root>
    </mxGraphModel>
  </diagram>
</mxfile>
